<?xml version="1.0" encoding="UTF-8" standalone="no"?>
<!-- Generator: Adobe Illustrator 22.0.1, SVG Export Plug-In . SVG Version: 6.00 Build 0)  -->

<svg
   version="1.1"
   id="Layer_1"
   x="0px"
   y="0px"
   viewBox="0 0 971.15698 96.699995"
   xml:space="preserve"
   width="971.15698"
   height="96.699997"
   xmlns="http://www.w3.org/2000/svg"
   xmlns:svg="http://www.w3.org/2000/svg"><defs
   id="defs871" />
<style
   type="text/css"
   id="style824">
	.st0{fill:#FFFFFF;}
</style>




















<g
   id="g986"
   transform="translate(-27.4,-27.4)"><path
     class="st0"
     d="M 28.4,68.2 V 30.3 h 7.4 v 37.9 z"
     id="path826" /><path
     class="st0"
     d="m 46.7,44.3 h 0.1 c 1.8,-2.4 5.2,-3.8 8.3,-3.8 3.3,0 6.2,1.4 7.8,3.8 2.2,-2.2 5.6,-3.8 8.8,-3.8 6,-0.1 9.1,3.7 9.2,9.9 v 17.8 h -7 V 51.7 c 0,-3.1 -1.1,-6.4 -4.5,-6.4 -3.4,0 -5.5,2.1 -5.5,6.8 v 16.2 h -7 V 51.7 c 0,-3.8 -1.6,-6.4 -4.6,-6.4 -3.3,0 -5.4,2.3 -5.4,6.9 v 16 h -7 V 41.1 h 7 v 3.2 z"
     id="path828" /><path
     class="st0"
     d="m 98.5,44.8 c 4,0 6,4.7 6,9.3 0,4.8 -1.6,10.4 -6.3,10.4 -3.8,0 -6.5,-3.8 -6.5,-9.5 0,-6.2 2.4,-10.2 6.8,-10.2 z m -6.8,-3.7 h -7 v 40.7 h 7 V 64.9 c 2,2.4 4.7,4 7.9,4 7.5,0 12.3,-7.6 12.3,-14.8 0,-6 -3.4,-13.6 -11.7,-13.6 -3.2,0 -6.6,1.6 -8.4,4.4 h -0.1 z"
     id="path830" /><path
     class="st0"
     d="m 122,51.4 c -0.1,-3.6 1.7,-6.9 5.8,-6.9 3.5,0 4.9,2.8 4.6,6.9 z m 17,3.9 c 0.5,-8.1 -2.9,-14.8 -11.1,-14.8 -7.5,0 -13.5,5.3 -13.5,13.7 0,8.9 6,14.7 13.9,14.7 3,0 6.8,-0.9 10.3,-3 l -2,-3.8 c -1.7,1.2 -4.5,2.2 -7.1,2.2 -4.4,0 -7.9,-3.8 -7.7,-8.9 H 139 Z"
     id="path832" /><path
     class="st0"
     d="m 149.4,45.9 h 0.1 l 1.4,-2.1 c 0.8,-1.1 2.4,-3.3 4.5,-3.3 1.6,0 3.3,0.9 4.8,2.4 l -2.6,5 c -1.2,-0.6 -1.9,-0.9 -3.3,-0.9 -2.4,0 -4.8,2 -4.8,7.9 v 13.4 h -7 V 41.1 h 7 v 4.8 z"
     id="path834" /><path
     class="st0"
     d="M 167.2,42.9 V 70 h -7 V 42.9 Z m -7.7,-8.1 c 0,-2.1 1.7,-4.2 4.1,-4.2 2.4,0 4.3,2.1 4.3,4.2 0,2.3 -1.6,4.5 -4.2,4.5 -2.5,0 -4.2,-2.2 -4.2,-4.5 z"
     id="path836" /><path
     class="st0"
     d="m 188.5,52.5 c 0.5,8 -3.1,11.5 -5.9,11.5 -1.7,0 -3.2,-1.6 -3.2,-4 0,-3.1 1.7,-5.1 5.2,-6.2 z m -0.1,11.8 c 0,1.5 0.2,3 0.7,4 h 7.4 c -0.8,-1.9 -1.1,-4.4 -1.1,-6.6 V 50.5 c 0,-8.5 -6,-10.1 -10.8,-10.1 -3.6,0 -6.9,0.9 -10.1,3.7 l 2.3,3.4 c 1.8,-1.6 4,-2.8 7,-2.8 2.3,0 4.4,1.6 4.8,4.1 l -6.2,1.9 c -6.1,1.8 -9.8,4.7 -9.8,9.9 0,5 3.4,8.2 7.5,8.2 2.4,0 4.8,-1.7 6.8,-3.3 z"
     id="path838" /><path
     class="st0"
     d="M 199.8,68.2 V 28.4 h 7 v 39.8 z"
     id="path840" /><path
     class="st0"
     d="m 253.1,37.2 c -1.8,-1 -4.8,-2.1 -7.7,-2.1 -7.6,0 -13.1,5.5 -13.1,14.1 0,9 6.1,14.3 13.3,14.3 2.9,0 5.5,-0.8 7.4,-1.9 l 2.1,4.7 c -2.3,1.4 -6.2,2.6 -9.8,2.6 -12.8,0 -20.9,-8.7 -20.9,-19.8 0,-10.4 8,-19.4 21,-19.4 3.9,0 7.4,1.4 10,2.9 z"
     id="path842" /><path
     class="st0"
     d="m 269.1,64.9 c -5,0 -6.4,-5.7 -6.4,-10.5 0,-4.5 1.6,-9.9 6.4,-9.9 4.9,0 6.4,5.4 6.4,9.9 0,4.7 -1.3,10.5 -6.4,10.5 z m 0,4 c 8.3,0 13.9,-6.1 13.9,-14.5 0,-8.8 -6.7,-13.9 -13.9,-13.9 -7.1,0 -13.8,5.1 -13.8,13.9 -0.1,8.3 5.5,14.5 13.8,14.5 z"
     id="path844" /><path
     class="st0"
     d="M 286,68.2 V 28.4 h 7 v 39.8 z"
     id="path846" /><path
     class="st0"
     d="M 297.4,68.2 V 28.4 h 7 v 39.8 z"
     id="path848" /><path
     class="st0"
     d="m 314.9,51.4 c -0.1,-3.6 1.7,-6.9 5.7,-6.9 3.5,0 4.9,2.8 4.6,6.9 z m 17,3.9 c 0.5,-8.1 -2.9,-14.8 -11.1,-14.8 -7.5,0 -13.5,5.3 -13.5,13.7 0,8.9 6,14.7 13.9,14.7 3,0 6.8,-0.9 10.3,-3 l -2,-3.8 c -1.7,1.2 -4.5,2.2 -7.1,2.2 -4.4,0 -7.9,-3.8 -7.7,-8.9 h 17.2 z"
     id="path850" /><path
     class="st0"
     d="m 372.2,51.4 c -0.1,-3.6 1.7,-6.9 5.8,-6.9 3.5,0 4.9,2.8 4.6,6.9 z m 17,3.9 c 0.5,-8.1 -2.9,-14.8 -11.1,-14.8 -7.5,0 -13.5,5.3 -13.5,13.7 0,8.9 6,14.7 13.9,14.7 3,0 6.8,-0.9 10.3,-3 l -2,-3.8 c -1.7,1.2 -4.5,2.2 -7.1,2.2 -4.4,0 -7.9,-3.8 -7.7,-8.9 h 17.2 z"
     id="path852" /><path
     class="st0"
     d="m 348.3,44.8 c 4.2,0 6.4,4.4 6.4,9.1 0,5.4 -2,10.6 -6.7,10.6 -4.1,0 -6.1,-5.1 -6.1,-10.4 0,-5.2 1.9,-9.3 6.4,-9.3 z m 13.4,-3.7 h -7 v 3.3 h -0.1 c -1.5,-2.4 -4.6,-4 -7.9,-4 -7.2,0 -12.2,6.8 -12.2,13.9 0,8.7 4.6,14.5 11.6,14.5 4,0 6.8,-2.3 8.5,-4.6 h 0.1 v 3.6 c 0,6.3 -3.6,9.2 -8.2,9.2 -3.6,0 -6.6,-0.7 -9.2,-2.3 l -1.4,4.4 c 3.1,1.6 7.1,2.6 11.1,2.6 7.9,0 14.7,-4 14.7,-16 z"
     id="path854" /><path
     class="st0"
     d="m 28.4,84.5 h 7.5 v 32.8 h 15.8 v 5.1 H 28.4 Z"
     id="path856" /><path
     class="st0"
     d="m 92.8,98.5 c 2.5,-2.6 6,-3.8 9.5,-3.8 6.5,0 9.6,3.5 9.6,10.3 v 17.5 h -7.1 v -16.6 c 0,-3.8 -1.7,-6.3 -5.6,-6.3 -3.6,0 -6.4,2.3 -6.4,6.8 v 16.2 H 85.7 V 95.3 h 7 v 3.2 z"
     id="path858" /><path
     class="st0"
     d="m 130.2,99 c 4.4,0 6.7,4.4 6.7,9.1 0,5.4 -2.1,10.6 -7.1,10.6 -4.3,0 -6.4,-5.1 -6.4,-10.4 0,-5.2 2,-9.3 6.8,-9.3 z m 6.7,23.4 H 144 V 82.6 h -7.1 v 15.9 h -0.1 c -1.7,-2.4 -4.9,-3.8 -8.5,-3.8 -7.4,0 -12.7,6.8 -12.7,13.9 0,8.7 4.8,14.5 12.1,14.5 4.3,0 7.2,-2.3 9,-4.6 h 0.1 v 3.9 z"
     id="path860" /><path
     class="st0"
     d="m 162.3,119.1 c -5.3,0 -6.7,-5.7 -6.7,-10.5 0,-4.5 1.7,-9.9 6.7,-9.9 5.2,0 6.8,5.4 6.8,9.9 -0.1,4.7 -1.5,10.5 -6.8,10.5 z m 0,4 c 8.7,0 14.6,-6.1 14.6,-14.5 0,-8.8 -7.1,-13.9 -14.6,-13.9 -7.4,0 -14.5,5.1 -14.5,13.9 -0.1,8.3 5.8,14.5 14.5,14.5 z"
     id="path862" /><path
     class="st0"
     d="m 187.7,98.5 c 2.5,-2.6 6,-3.8 9.5,-3.8 6.5,0 9.6,3.5 9.6,10.3 v 17.5 h -7.1 v -16.6 c 0,-3.8 -1.7,-6.3 -5.6,-6.3 -3.6,0 -6.4,2.3 -6.4,6.8 v 16.2 h -7.1 V 95.3 h 7 v 3.2 z"
     id="path864" /><path
     class="st0"
     d="m 67.2,119.1 c -5.3,0 -6.7,-5.7 -6.7,-10.5 0,-4.5 1.7,-9.9 6.7,-9.9 5.2,0 6.8,5.4 6.8,9.9 0,4.7 -1.4,10.5 -6.8,10.5 z m 0,4 c 8.7,0 14.6,-6.1 14.6,-14.5 0,-8.8 -7.1,-13.9 -14.6,-13.9 -7.4,0 -14.5,5.1 -14.5,13.9 0,8.3 5.9,14.5 14.5,14.5 z"
     id="path866" /></g>
<path
   d="m 562.76361,39.946837 c -2.34855,-2.347812 -3.09256,-5.84151 -3.09256,-10.251031 V 3.765161 c 0,-0.322234 0.26103,-0.583266 0.58326,-0.583266 h 4.04379 c 0.32223,0 0.58326,0.261032 0.58326,0.583266 v 24.441878 c 0,3.492961 0.22933,6.184391 1.54628,7.844967 1.25945,1.60306 3.32116,2.462105 6.87163,2.462105 h 1.94742 c 3.55047,0 5.61218,-0.859045 6.81485,-2.405327 1.37447,-1.718091 1.60306,-4.352006 1.60306,-7.902482 V 3.765161 c 0,-0.322234 0.26103,-0.583266 0.58326,-0.583266 h 4.04378 c 0.32224,0 0.58327,0.261032 0.58327,0.583266 v 25.930645 c 0,4.58133 -0.85905,8.189322 -3.43618,10.479618 -2.06171,1.832385 -5.15354,2.805724 -9.79238,2.805724 h -2.80573 c -4.80844,7.38e-4 -8.0153,-1.086895 -10.07701,-3.034311 z m 34.2549,-36.764942 h 4.04231 c 0.32297,0 0.58474,0.262507 0.58327,0.585478 v 16.593963 h 3.32336 c 0.57221,0 0.85905,-0.171809 1.25944,-0.80153 L 617.27724,3.435553 c 0.10913,-0.158536 0.28905,-0.253658 0.48151,-0.253658 h 4.13595 c 0.47045,0 0.74771,0.527963 0.48004,0.915086 l -12.36805,17.925668 13.84207,19.696845 c 0.27209,0.386386 -0.005,0.918773 -0.47782,0.918773 h -4.52972 c -0.1895,0 -0.36795,-0.09217 -0.47708,-0.247021 L 605.94079,24.771595 h -4.29523 v 17.283406 c 0,0.322235 -0.26103,0.583266 -0.58326,0.583266 h -4.04379 c -0.32223,0 -0.58326,-0.261031 -0.58326,-0.583266 V 3.765161 c -7.4e-4,-0.322234 0.26103,-0.583266 0.58326,-0.583266 z m 42.74213,0.583266 c 0,-0.322234 0.26103,-0.583266 0.58327,-0.583266 h 14.47768 c 4.46704,0 7.96,0.687236 10.19278,2.920762 1.94741,2.004191 4.00912,5.669698 4.00912,16.836553 0,11.166117 -2.06171,14.774109 -4.00912,16.778303 -2.23278,2.233518 -5.66897,2.920754 -10.19278,2.920754 h -14.47768 c -0.32224,0 -0.58327,-0.261031 -0.58327,-0.583266 z m 14.66055,34.749688 c 3.09257,0 5.21105,-0.629721 6.58553,-2.004194 2.29029,-2.34855 2.4621,-6.872365 2.4621,-13.628961 0,-6.757333 -0.22932,-11.166854 -2.4621,-13.515404 -1.31696,-1.431251 -3.43619,-2.060972 -6.64304,-2.060972 h -9.39199 v 31.209531 z m 37.33493,-7.673157 h -12.82743 c 0.0575,3.263635 0.34362,5.612185 1.66132,6.871627 0.80153,0.859045 2.06097,1.317694 3.89335,1.317694 h 2.86324 c 1.8899,0 3.43618,-0.229324 4.69563,-0.916561 0.46749,-0.297163 0.83987,-0.626034 1.21077,-0.985874 0.22269,-0.216052 0.57884,-0.209416 0.80227,0.0052 l 2.10226,2.019679 c 0.22712,0.218264 0.24334,0.584741 0.0288,0.814803 -0.6076,0.650368 -1.2093,1.16432 -1.96806,1.638454 -1.66058,0.916561 -3.72229,1.374473 -6.81485,1.374473 h -3.32115 c -2.74895,0 -5.38286,-0.515427 -7.27276,-2.291034 -1.71809,-1.60306 -3.03505,-4.29449 -3.03505,-11.854091 0,-7.44457 1.26018,-10.078485 2.86324,-11.624767 1.83238,-1.8899 4.58133,-2.462843 7.44457,-2.462843 h 2.86324 c 3.32115,0 5.6697,0.744752 7.21524,2.119225 1.77487,1.488767 2.69143,3.779801 2.69143,7.100952 v 1.947415 c 10e-4,3.093302 -0.74327,4.925687 -5.09602,4.925687 z m 0.22933,-5.268567 v -1.718091 c 0,-1.603061 -0.2861,-2.977533 -1.25944,-3.893357 -0.91657,-0.916561 -2.29104,-1.260179 -4.12342,-1.260179 h -2.17601 c -1.83238,0 -3.03504,0.458649 -3.83657,1.317694 -1.37448,1.316958 -1.6038,3.779801 -1.66132,7.158468 h 11.51048 c 1.08837,-0.0015 1.54628,-0.516903 1.54628,-1.604535 z m 9.47162,-1.26018 c 0,-3.607991 0.74401,-5.726478 2.00419,-7.100951 1.31696,-1.431989 3.49296,-2.462843 7.33028,-2.462843 h 3.43618 c 2.17601,0 3.83658,0.171809 5.15354,0.916561 0.80227,0.401133 1.4895,0.973339 2.00419,1.718091 h 0.1143 c 0.51542,-0.687237 1.20266,-1.260179 1.94741,-1.661313 1.37447,-0.744015 3.03505,-0.973339 5.03924,-0.973339 h 3.32189 c 3.8941,0 6.01258,1.030854 7.33028,2.462843 1.31696,1.374473 2.06171,3.49296 2.06171,7.100951 v 17.741319 c 0,0.322234 -0.26103,0.583266 -0.58327,0.583266 h -3.75768 c -0.32223,0 -0.58326,-0.261032 -0.58326,-0.583266 V 26.890082 c 0,-3.836579 -0.1143,-5.382861 -0.85905,-6.64304 -0.85904,-1.316957 -2.4621,-1.546282 -4.12342,-1.546282 h -2.80572 c -1.60306,0 -3.09183,0.401134 -3.89336,1.546282 -0.80153,1.202664 -0.80153,2.462843 -0.80153,6.127613 v 15.679609 c 0,0.322234 -0.26103,0.583266 -0.58326,0.583266 h -3.75768 c -0.32224,0 -0.58327,-0.261032 -0.58327,-0.583266 V 26.43217 c 0,-3.894094 -0.0575,-5.096758 -0.68724,-6.127612 -0.74475,-1.201927 -2.11922,-1.60306 -3.95161,-1.60306 h -2.86323 c -1.7181,0 -3.26364,0.229324 -4.12269,1.546282 -0.80226,1.260179 -0.85904,2.805723 -0.85904,6.643039 v 15.16492 c 0,0.322234 -0.26103,0.583266 -0.58327,0.583266 h -3.75768 c -0.32223,0 -0.58326,-0.261032 -0.58326,-0.583266 V 24.312945 Z m 62.58645,6.528747 h -12.82743 c 0.0575,3.263635 0.34361,5.612185 1.66131,6.871627 0.80153,0.859045 2.06097,1.317694 3.89336,1.317694 h 2.86324 c 1.8899,0 3.43618,-0.229324 4.69562,-0.916561 0.4675,-0.297163 0.83987,-0.626034 1.21077,-0.985874 0.22269,-0.216052 0.57885,-0.209416 0.80227,0.0052 l 2.10227,2.019679 c 0.22711,0.218264 0.24333,0.584741 0.0288,0.814803 -0.6076,0.650368 -1.2093,1.16432 -1.96806,1.638454 -1.66057,0.916561 -3.72228,1.374473 -6.81485,1.374473 h -3.32115 c -2.74894,0 -5.38286,-0.515427 -7.27276,-2.291034 -1.71809,-1.60306 -3.03505,-4.29449 -3.03505,-11.854091 0,-7.44457 1.26018,-10.078485 2.86324,-11.624767 1.83239,-1.8899 4.58133,-2.462843 7.44457,-2.462843 h 2.86324 c 3.32115,0 5.6697,0.744752 7.21525,2.119225 1.7756,1.488767 2.69143,3.779801 2.69143,7.100952 v 1.947415 c 10e-4,3.093302 -0.74328,4.925687 -5.09602,4.925687 z m 0.22932,-5.268567 v -1.718091 c 0,-1.603061 -0.2861,-2.977533 -1.25944,-3.893357 -0.91656,-0.916561 -2.29103,-1.260179 -4.12342,-1.260179 h -2.176 c -1.83239,0 -3.03505,0.458649 -3.83658,1.317694 -1.37447,1.316958 -1.6038,3.779801 -1.66131,7.158468 h 11.51047 c 1.08837,-0.0015 1.54628,-0.516903 1.54628,-1.604535 z m 9.67588,-1.26018 c 0,-3.607991 0.74401,-5.726478 2.00419,-7.100951 1.31696,-1.431989 3.49296,-2.462843 7.33028,-2.462843 h 3.95087 c 3.89409,0 6.01332,1.030854 7.33028,2.462843 1.31695,1.374473 2.06171,3.49296 2.06171,7.100951 v 17.741319 c 0,0.322234 -0.26104,0.583266 -0.58327,0.583266 h -3.75768 c -0.32223,0 -0.58327,-0.261032 -0.58327,-0.583266 V 26.890082 c 0,-3.836579 -0.11429,-5.382861 -0.85904,-6.64304 -0.85978,-1.316957 -2.46284,-1.546282 -4.12342,-1.546282 h -2.86324 c -1.77487,0 -3.26364,0.229325 -4.12268,1.546282 -0.80227,1.260179 -0.85905,2.805724 -0.85905,6.64304 v 15.164919 c 0,0.322235 -0.26103,0.583266 -0.58326,0.583266 h -3.75768 c -0.32224,0 -0.58327,-0.261031 -0.58327,-0.583266 V 24.312945 Z m 43.23322,14.957716 v 2.78434 c 0,0.322235 -0.26104,0.583266 -0.58327,0.583266 h -3.0815 c -3.7798,0 -5.6697,-0.973339 -7.04344,-2.347812 -1.31696,-1.374473 -2.06171,-3.551213 -2.06171,-7.101689 V 19.159409 h -3.59693 c -0.32223,0 -0.58327,-0.261031 -0.58327,-0.583266 v -2.78434 c 0,-0.322234 0.26104,-0.583266 0.58327,-0.583266 h 3.59693 V 6.056202 c 0,-0.322234 0.26103,-0.583266 0.58327,-0.583266 h 3.75768 c 0.32223,0 0.58326,0.261032 0.58326,0.583266 V 15.2078 h 5.60113 c 0.32223,0 0.58326,0.261032 0.58326,0.583266 v 2.78434 c 0,0.322234 -0.26103,0.583266 -0.58326,0.583266 h -5.60113 v 11.338664 c 0,4.237712 0.17107,5.55467 0.91656,6.585524 0.74402,1.145149 2.11849,1.60306 3.83658,1.60306 h 2.50856 c 0.32297,7.38e-4 0.58401,0.26177 0.58401,0.584741 z m 3.66477,-33.283035 c 0,-1.832392 1.20266,-3.206865 3.15008,-3.206865 1.94741,0 3.20685,1.374473 3.20685,3.206865 0,1.774867 -1.31695,3.150077 -3.20685,3.150077 -1.88991,0 -3.15008,-1.374473 -3.15008,-3.150077 z m 1.27124,9.220174 h 3.75767 c 0.32224,0 0.58327,0.261032 0.58327,0.583266 v 26.263198 c 0,0.322234 -0.26103,0.583266 -0.58327,0.583266 h -3.75767 c -0.32224,0 -0.58327,-0.261032 -0.58327,-0.583266 V 15.791066 c -7.4e-4,-0.322234 0.26103,-0.583266 0.58327,-0.583266 z m 32.11134,9.105145 v 8.875821 c 0,3.779801 -0.40113,6.299422 -1.8899,7.845704 -1.31696,1.374473 -3.55121,1.947416 -7.21598,1.947416 h -3.89336 c -2.97827,0 -5.38286,-0.687237 -6.98666,-2.176003 -1.60306,-1.374473 -2.4621,-3.378667 -2.4621,-6.241906 0,-2.86324 0.91656,-4.867434 2.34781,-6.184391 2.57714,-2.291034 5.78399,-2.863239 11.28188,-2.863239 h 3.8941 v -0.744015 c 0,-2.577137 -0.22933,-4.237712 -1.3177,-5.211789 -0.68723,-0.629721 -1.83238,-0.916561 -3.49296,-0.916561 h -2.4621 c -2.51962,0 -4.26942,0.384911 -5.77884,1.772657 -0.23374,0.215315 -0.60465,0.179183 -0.8148,-0.05899 l -1.87368,-2.11775 c -0.19983,-0.225638 -0.20351,-0.57663 0.007,-0.791944 1.94594,-1.989447 4.79148,-2.698804 8.34564,-2.698804 h 2.97827 c 3.66477,0 5.95507,0.973339 7.33028,2.462843 1.25797,1.374473 2.00272,3.378666 2.00272,7.100951 z m -4.92495,9.849898 v -4.981727 h -4.12342 c -3.32115,0 -5.89829,0.343618 -7.33027,1.8899 -0.62972,0.744015 -1.03086,1.832385 -1.03086,3.321151 0,1.488767 0.45865,2.633915 1.31696,3.378667 0.91656,0.916561 2.00419,1.317695 4.12342,1.317695 h 2.34781 c 1.94742,0 3.15008,-0.343618 3.83658,-1.202664 0.63046,-0.802267 0.85978,-2.062447 0.85978,-3.723022 z M 581.49818,93.321218 573.58611,77.890105 h -8.70475 v 15.164919 c 0,0.322235 -0.26103,0.583267 -0.58326,0.583267 h -4.04379 c -0.32223,0 -0.58326,-0.261032 -0.58326,-0.583267 V 54.765926 c 0,-0.322234 0.26103,-0.583266 0.58326,-0.583266 h 13.90474 c 3.7798,0 6.3562,0.744014 8.18933,2.233518 2.46284,2.004194 3.32188,5.325345 3.32188,9.391249 0,5.154273 -1.08837,8.189321 -3.49369,9.907413 -0.91656,0.687236 -2.0042,1.201926 -3.26364,1.488766 l 8.03669,15.584488 c 0.20056,0.388598 -0.0818,0.850934 -0.51838,0.850934 h -4.41247 c -0.21974,-7.37e-4 -0.42031,-0.123142 -0.52059,-0.31781 z m -8.54179,-19.553794 c 2.97827,0 4.81066,-0.458649 5.89829,-1.546282 1.14515,-1.087633 1.43125,-2.805724 1.43125,-5.55467 V 65.12019 c 0,-2.97827 -0.62972,-4.753139 -2.06097,-5.726479 -1.26018,-0.80153 -3.09257,-1.087632 -5.55467,-1.087632 h -7.78819 v 15.462082 h 8.07429 z m 35.10879,8.074291 h -12.82743 c 0.0568,3.263636 0.34361,5.612185 1.66057,6.871627 0.80153,0.859045 2.06097,1.317695 3.89336,1.317695 h 2.86324 c 1.8899,0 3.43618,-0.229325 4.69562,-0.916562 0.46676,-0.297163 0.83914,-0.626034 1.21078,-0.985874 0.22269,-0.216052 0.57884,-0.209415 0.80226,0.0052 l 2.10227,2.019679 c 0.22711,0.218264 0.24333,0.584741 0.0288,0.814803 -0.6076,0.650367 -1.2093,1.16432 -1.96806,1.638454 -1.66058,0.916561 -3.72229,1.374473 -6.81485,1.374473 h -3.32116 c -2.74894,0 -5.38286,-0.515428 -7.27276,-2.291034 -1.71809,-1.60306 -3.03504,-4.29449 -3.03504,-11.854092 0,-7.44457 1.26017,-10.078485 2.86324,-11.624767 1.83238,-1.8899 4.58133,-2.462843 7.44456,-2.462843 h 2.86324 c 3.32116,0 5.66971,0.744752 7.21525,2.119225 1.77487,1.488767 2.69143,3.779801 2.69143,7.100952 v 1.947416 c 7.4e-4,3.093301 -0.74328,4.925686 -5.09528,4.925686 z m 0.22858,-5.26783 v -1.718091 c 0,-1.60306 -0.2861,-2.977533 -1.25944,-3.893357 -0.91656,-0.916561 -2.29103,-1.260179 -4.12342,-1.260179 h -2.176 c -1.83238,0 -3.03505,0.458649 -3.83658,1.317695 -1.37447,1.316957 -1.6038,3.7798 -1.66057,7.158467 h 11.51047 c 1.08763,-0.0015 1.54554,-0.516902 1.54554,-1.604535 z m 8.5558,12.991866 2.24606,-2.16273 c 0.25513,-0.245547 0.65774,-0.201304 0.87526,0.07743 1.46665,1.876627 3.23341,2.550591 5.96318,2.550591 h 2.23352 c 1.83238,0 3.14934,-0.171809 3.95087,-0.859046 0.91656,-0.744014 0.97334,-2.004193 0.97334,-3.092563 0,-1.546282 -0.11429,-2.290297 -0.62972,-2.977533 -0.34362,-0.515428 -0.85904,-0.916562 -2.06171,-1.145149 l -7.50208,-1.374473 c -1.66058,-0.286103 -3.03505,-0.973339 -3.83658,-1.947416 -0.91656,-1.087632 -1.26018,-2.633914 -1.26018,-4.638846 v -1.259442 c 0,-1.718091 0.45791,-3.206857 1.43125,-4.352006 1.37447,-1.718091 3.89409,-2.634652 7.44457,-2.634652 h 2.34855 c 3.70975,0 6.15858,0.858308 7.9128,2.907482 0.19541,0.22785 0.17108,0.57663 -0.0413,0.788995 l -2.26817,2.268175 c -0.24186,0.24186 -0.62825,0.214577 -0.85905,-0.03761 -1.2941,-1.415029 -2.84849,-1.975436 -4.9161,-1.975436 h -1.77561 c -2.00419,0 -3.20685,0.229324 -3.95161,1.030854 -0.45791,0.457912 -0.80153,1.030855 -0.80153,2.577137 0,0.973339 0.17181,1.718091 0.57221,2.291034 0.40113,0.515428 1.03085,0.916561 2.06171,1.087633 l 7.50208,1.489504 c 1.20267,0.229325 2.23278,0.572205 3.03505,1.202664 1.83239,1.316957 2.2903,3.378667 2.2903,5.726479 v 1.661313 c 0,2.176002 -0.62972,4.008387 -2.176,5.325345 -1.43126,1.201926 -3.72155,1.8899 -7.10096,1.8899 h -2.86324 c -4.48915,0 -6.72783,-0.732954 -8.86771,-3.650022 -0.17033,-0.234486 -0.13789,-0.566307 0.0708,-0.767612 z m 42.87633,-7.724036 h -12.82743 c 0.0568,3.263636 0.34362,5.612185 1.66058,6.871627 0.80153,0.859045 2.06097,1.317695 3.89335,1.317695 h 2.86324 c 1.8899,0 3.43618,-0.229325 4.69563,-0.916562 0.46676,-0.297163 0.83913,-0.626034 1.21077,-0.985874 0.22269,-0.216052 0.57884,-0.209415 0.80227,0.0052 l 2.10226,2.019679 c 0.22712,0.218264 0.24334,0.584741 0.0288,0.814803 -0.6076,0.650367 -1.2093,1.16432 -1.96806,1.638454 -1.66058,0.916561 -3.72229,1.374473 -6.81485,1.374473 h -3.32115 c -2.74895,0 -5.38286,-0.515428 -7.27276,-2.291034 -1.71809,-1.60306 -3.03505,-4.29449 -3.03505,-11.854092 0,-7.44457 1.26018,-10.078485 2.86324,-11.624767 1.83238,-1.8899 4.58133,-2.462843 7.44457,-2.462843 h 2.86324 c 3.32115,0 5.6697,0.744752 7.21524,2.119225 1.77487,1.488767 2.69143,3.779801 2.69143,7.100952 v 1.947416 c 0.001,3.093301 -0.74327,4.925686 -5.09528,4.925686 z m 0.22859,-5.26783 v -1.718091 c 0,-1.60306 -0.2861,-2.977533 -1.25944,-3.893357 -0.91656,-0.916561 -2.29104,-1.260179 -4.12342,-1.260179 h -2.17601 c -1.83238,0 -3.03504,0.458649 -3.83657,1.317695 -1.37448,1.316957 -1.6038,3.7798 -1.66058,7.158467 h 11.51047 c 1.08837,-0.0015 1.54555,-0.516902 1.54555,-1.604535 z m 30.69853,-1.260179 v 8.875821 c 0,3.7798 -0.40114,6.299421 -1.8899,7.845703 -1.31696,1.374473 -3.55122,1.947416 -7.21599,1.947416 h -3.89335 c -2.97827,0 -5.38286,-0.687236 -6.98666,-2.176003 -1.60306,-1.374473 -2.46211,-3.378667 -2.46211,-6.241906 0,-2.863239 0.91656,-4.867433 2.34781,-6.18439 2.57714,-2.291034 5.784,-2.86324 11.28189,-2.86324 h 3.89409 v -0.744014 c 0,-2.577137 -0.22932,-4.237713 -1.31769,-5.211789 -0.68724,-0.629721 -1.83239,-0.916561 -3.49296,-0.916561 h -2.46211 c -2.51962,0 -4.26942,0.384911 -5.77883,1.772657 -0.23375,0.215314 -0.60465,0.179183 -0.8148,-0.05899 l -1.87368,-2.11775 c -0.19983,-0.225637 -0.20352,-0.576629 0.007,-0.791944 1.94594,-1.989446 4.79148,-2.698804 8.34564,-2.698804 h 2.97827 c 3.66477,0 5.95507,0.973339 7.33028,2.462843 1.25797,1.373736 2.00346,3.378667 2.00346,7.100952 z m -4.92569,9.84916 v -4.981727 h -4.12342 c -3.32115,0 -5.89829,0.343619 -7.33028,1.889901 -0.62972,0.744014 -1.03085,1.832384 -1.03085,3.321151 0,1.488766 0.45865,2.633915 1.31696,3.378666 0.91656,0.916561 2.00419,1.317695 4.12342,1.317695 h 2.34781 c 1.94741,0 3.15008,-0.343618 3.83658,-1.202664 0.63119,-0.802267 0.85978,-2.062446 0.85978,-3.723022 z m 10.72,-9.84916 c 0,-3.66477 0.80153,-5.898288 2.23278,-7.272761 1.3177,-1.374473 3.26438,-2.291034 6.87237,-2.291034 h 3.25331 c 0.32224,0 0.58327,0.261032 0.58327,0.583266 v 2.78434 c 0,0.322234 -0.26103,0.583266 -0.58327,0.583266 h -2.73788 c -1.7181,0 -3.09183,0.458649 -3.89336,1.60306 -0.68724,1.088371 -0.80227,2.405328 -0.80227,6.643041 v 15.107403 c 0,0.322234 -0.26103,0.583266 -0.58326,0.583266 h -3.75768 c -0.32224,0 -0.58327,-0.261032 -0.58327,-0.583266 V 75.313706 Z m 17.80474,16.320391 C 712.59148,90.087815 711.3313,87.4539 711.27379,80.181139 v -0.572942 c 0,-7.100952 1.26018,-9.620574 2.69143,-11.223634 1.8899,-2.004194 4.63884,-2.634652 7.61638,-2.634652 h 2.57713 c 2.176,0 4.35201,0.28684 5.784,0.859783 0.94974,0.399659 1.81173,1.017582 2.58672,1.929719 0.1954,0.229324 0.1696,0.579579 -0.0457,0.790469 l -2.26596,2.223933 c -0.23375,0.229324 -0.61276,0.218264 -0.83471,-0.02212 -0.42768,-0.463811 -0.84578,-0.762449 -1.33097,-1.027905 -1.03086,-0.572205 -2.40533,-0.80153 -4.12342,-0.80153 h -2.00419 c -2.06098,0 -3.66477,0.458649 -4.52382,2.291034 -0.68724,1.488767 -0.97334,4.008388 -0.97334,7.844967 0,3.894094 0.28684,6.528746 0.97334,7.959997 0.85905,1.718091 2.34855,2.233518 4.52382,2.233518 h 1.83238 c 1.66131,0 3.32189,-0.171809 4.58207,-0.916561 0.48224,-0.263244 0.93131,-0.560408 1.34645,-0.993248 0.21974,-0.229325 0.58843,-0.224901 0.81554,-0.0029 l 2.07425,2.033688 c 0.22416,0.219739 0.23743,0.584004 0.0228,0.813329 -0.67912,0.72558 -1.37742,1.322856 -2.19812,1.757172 -1.60306,0.859045 -3.83658,1.260179 -6.58552,1.260179 h -2.23278 c -2.80499,-7.37e-4 -5.49642,-0.57368 -7.32954,-2.349287 z m 24.1801,-39.856765 h 3.75768 c 0.32223,0 0.58327,0.261032 0.58327,0.583266 v 14.935595 h 0.0568 c 1.43199,-1.145148 3.43619,-1.546282 5.61219,-1.546282 h 2.69143 c 3.89409,0 6.01332,1.030855 7.33028,2.462843 1.31769,1.374473 2.06171,3.49296 2.06171,7.100952 v 17.741318 c 0,0.322235 -0.26104,0.583267 -0.58327,0.583267 h -3.75768 c -0.32223,0 -0.58327,-0.261032 -0.58327,-0.583267 V 77.890105 c 0,-3.722285 -0.0575,-5.440376 -0.85904,-6.64304 -0.85978,-1.374473 -2.52036,-1.546282 -4.12342,-1.546282 h -3.09256 c -1.60306,0 -3.09183,0.401134 -3.89336,1.546282 -0.74475,1.08837 -0.85905,2.748946 -0.85905,6.64304 v 15.164919 c 0,0.322235 -0.26103,0.583267 -0.58326,0.583267 h -3.75768 c -0.32224,0 -0.58327,-0.261032 -0.58327,-0.583267 V 52.360598 c -10e-4,-0.322234 0.2603,-0.583266 0.58253,-0.583266 z m 54.37943,38.321543 v 2.956149 c 0,0.322235 -0.26103,0.583267 -0.58327,0.583267 h -14.2373 c -0.32223,0 -0.58326,-0.261032 -0.58326,-0.583267 v -2.956149 c 0,-0.322234 0.26103,-0.583266 0.58326,-0.583266 h 4.57101 V 58.305341 h -4.57101 c -0.32223,0 -0.58326,-0.261032 -0.58326,-0.583266 v -2.956149 c 0,-0.322234 0.26103,-0.583266 0.58326,-0.583266 h 14.12301 c 0.32223,0 0.58326,0.261032 0.58326,0.583266 v 2.956149 c 0,0.322234 -0.26103,0.583266 -0.58326,0.583266 h -4.34095 v 31.209531 h 4.45598 c 0.3215,0 0.58253,0.261769 0.58253,0.584003 z m 5.07021,-14.785169 c 0,-3.607992 0.74401,-5.726479 2.00419,-7.100952 1.31696,-1.431988 3.49296,-2.462843 7.33028,-2.462843 h 3.95087 c 3.8941,0 6.01332,1.030855 7.33028,2.462843 1.31696,1.374473 2.06171,3.49296 2.06171,7.100952 v 17.741318 c 0,0.322235 -0.26103,0.583267 -0.58327,0.583267 h -3.75768 c -0.32223,0 -0.58326,-0.261032 -0.58326,-0.583267 V 77.890105 c 0,-3.836578 -0.1143,-5.38286 -0.85905,-6.64304 -0.85978,-1.316957 -2.46284,-1.546282 -4.12342,-1.546282 h -2.86324 c -1.77487,0 -3.26363,0.229325 -4.12268,1.546282 -0.80227,1.26018 -0.85904,2.805724 -0.85904,6.64304 v 15.164919 c 0,0.322235 -0.26104,0.583267 -0.58327,0.583267 h -3.75768 c -0.32223,0 -0.58327,-0.261032 -0.58327,-0.583267 V 75.313706 Z m 26.99541,14.252045 2.24606,-2.16273 c 0.25513,-0.245547 0.65774,-0.201304 0.87527,0.07743 1.46664,1.876627 3.2334,2.550591 5.96317,2.550591 h 2.23352 c 1.83239,0 3.14934,-0.171809 3.95087,-0.859046 0.91657,-0.744014 0.97334,-2.004193 0.97334,-3.092563 0,-1.546282 -0.11429,-2.290297 -0.62972,-2.977533 -0.34362,-0.515428 -0.85904,-0.916562 -2.06171,-1.145149 l -7.50208,-1.374473 c -1.66058,-0.286103 -3.03505,-0.973339 -3.83658,-1.947416 -0.91656,-1.087632 -1.26018,-2.633914 -1.26018,-4.638846 v -1.259442 c 0,-1.718091 0.45791,-3.206857 1.43125,-4.352006 1.37447,-1.718091 3.89409,-2.634652 7.44457,-2.634652 h 2.34855 c 3.70975,0 6.15858,0.858308 7.91281,2.907482 0.1954,0.22785 0.17107,0.57663 -0.0413,0.788995 l -2.26817,2.268175 c -0.24186,0.24186 -0.62825,0.214577 -0.85905,-0.03761 -1.2941,-1.415029 -2.84849,-1.975436 -4.9161,-1.975436 h -1.77487 c -2.00419,0 -3.20686,0.229324 -3.95161,1.030854 -0.45791,0.457912 -0.80153,1.030855 -0.80153,2.577137 0,0.973339 0.17181,1.718091 0.57221,2.291034 0.40113,0.515428 1.03085,0.916561 2.06171,1.087633 l 7.50208,1.489504 c 1.20267,0.229325 2.23278,0.572205 3.03505,1.202664 1.83239,1.316957 2.2903,3.378667 2.2903,5.726479 v 1.661313 c 0,2.176002 -0.62972,4.008387 -2.17601,5.325345 -1.43125,1.201926 -3.72154,1.8899 -7.10095,1.8899 h -2.86324 c -4.48915,0 -6.72783,-0.732954 -8.86771,-3.650022 -0.17107,-0.234486 -0.13862,-0.566307 0.0701,-0.767611 z m 41.21428,0.704933 v 2.78434 c 0,0.322235 -0.26103,0.583267 -0.58326,0.583267 h -3.08151 c -3.7798,0 -5.6697,-0.97334 -7.04343,-2.347813 -1.31696,-1.374472 -2.06171,-3.551213 -2.06171,-7.101688 V 70.159432 h -3.59693 c -0.32224,0 -0.58327,-0.261031 -0.58327,-0.583266 v -2.78434 c 0,-0.322234 0.26103,-0.583266 0.58327,-0.583266 h 3.59693 v -9.1516 c 0,-0.322234 0.26103,-0.583266 0.58326,-0.583266 h 3.75768 c 0.32224,0 0.58327,0.261032 0.58327,0.583266 v 9.1516 h 5.60112 c 0.32224,0 0.58327,0.261032 0.58327,0.583266 v 2.78434 c 0,0.322235 -0.26103,0.583266 -0.58327,0.583266 h -5.60112 v 11.338665 c 0,4.237712 0.17181,5.554669 0.91656,6.585524 0.74401,1.145148 2.11849,1.60306 3.83658,1.60306 h 2.5093 c 0.32223,7.37e-4 0.58326,0.261769 0.58326,0.584003 z m 3.63454,-33.2823 c 0,-1.832385 1.20266,-3.206858 3.15008,-3.206858 1.94741,0 3.20686,1.374473 3.20686,3.206858 0,1.774869 -1.31696,3.150079 -3.20686,3.150079 -1.8899,0 -3.15008,-1.37521 -3.15008,-3.150079 z m 1.27124,9.220176 h 3.75768 c 0.32223,0 0.58326,0.261032 0.58326,0.583266 v 26.263198 c 0,0.322235 -0.26103,0.583267 -0.58326,0.583267 h -3.75768 c -0.32224,0 -0.58327,-0.261032 -0.58327,-0.583267 V 66.791826 c 0,-0.322234 0.26103,-0.583266 0.58327,-0.583266 z m 26.16291,24.062124 v 2.78434 c 0,0.322235 -0.26103,0.583267 -0.58326,0.583267 h -3.08151 c -3.7798,0 -5.6697,-0.97334 -7.04343,-2.347813 -1.3177,-1.374472 -2.06171,-3.551213 -2.06171,-7.101688 V 70.159432 h -3.59693 c -0.32224,0 -0.58327,-0.261031 -0.58327,-0.583266 v -2.78434 c 0,-0.322234 0.26103,-0.583266 0.58327,-0.583266 h 3.59619 v -9.1516 c 0,-0.322234 0.26103,-0.583266 0.58327,-0.583266 h 3.75768 c 0.32223,0 0.58326,0.261032 0.58326,0.583266 v 9.1516 h 5.60113 c 0.32223,0 0.58326,0.261032 0.58326,0.583266 v 2.78434 c 0,0.322235 -0.26103,0.583266 -0.58326,0.583266 h -5.60113 v 11.338665 c 0,4.237712 0.17181,5.554669 0.91656,6.585524 0.74402,1.145148 2.11849,1.60306 3.83658,1.60306 h 2.5093 c 0.32223,7.37e-4 0.584,0.261769 0.584,0.584003 z m 5.5908,1.249119 c -1.26017,-1.374473 -2.00419,-3.49296 -2.00419,-7.100951 V 66.791826 c 0,-0.322234 0.26103,-0.583266 0.58327,-0.583266 h 3.75768 c 0.32223,0 0.58326,0.261032 0.58326,0.583266 v 15.049889 c 0,3.722285 0.0568,5.440376 0.85905,6.64304 0.85904,1.374472 2.4621,1.546282 4.12268,1.546282 h 2.51962 c 1.66131,0 3.26437,-0.17181 4.12342,-1.546282 0.74401,-1.202664 0.80153,-2.920755 0.80153,-6.64304 V 66.791826 c 0,-0.322234 0.26103,-0.583266 0.58327,-0.583266 h 3.75767 c 0.32224,0 0.58327,0.261032 0.58327,0.583266 v 17.627026 c 0,3.607991 -0.68724,5.726478 -2.00419,7.100951 -1.31696,1.431988 -3.49296,2.462843 -7.33028,2.462843 h -3.60799 c -3.8351,0 -6.01185,-1.030855 -7.32807,-2.462843 z m 41.6921,-1.249119 v 2.78434 c 0,0.322235 -0.26103,0.583267 -0.58326,0.583267 h -3.08151 c -3.7798,0 -5.6697,-0.97334 -7.04343,-2.347813 -1.31696,-1.374472 -2.06171,-3.551213 -2.06171,-7.101688 V 70.159432 h -3.59693 c -0.32224,0 -0.58327,-0.261031 -0.58327,-0.583266 v -2.78434 c 0,-0.322234 0.26103,-0.583266 0.58327,-0.583266 h 3.59693 v -9.1516 c 0,-0.322234 0.26103,-0.583266 0.58326,-0.583266 h 3.75768 c 0.32224,0 0.58327,0.261032 0.58327,0.583266 v 9.1516 h 5.60112 c 0.32224,0 0.58327,0.261032 0.58327,0.583266 v 2.78434 c 0,0.322235 -0.26103,0.583266 -0.58327,0.583266 h -5.60112 v 11.338665 c 0,4.237712 0.17107,5.554669 0.91656,6.585524 0.74402,1.145148 2.11849,1.60306 3.83658,1.60306 h 2.50856 c 0.32297,7.37e-4 0.584,0.261769 0.584,0.584003 z m 20.61783,-8.428969 h -12.82743 c 0.0568,3.263636 0.34362,5.612185 1.66058,6.871627 0.80153,0.859045 2.06097,1.317695 3.89409,1.317695 h 2.86324 c 1.8899,0 3.43618,-0.229325 4.69563,-0.916562 0.46676,-0.297163 0.83913,-0.626034 1.21077,-0.985874 0.22269,-0.216052 0.57884,-0.209415 0.80227,0.0052 l 2.10226,2.019679 c 0.22712,0.218264 0.24334,0.584741 0.0288,0.814803 -0.6076,0.650367 -1.2093,1.16432 -1.96806,1.638454 -1.66058,0.916561 -3.72229,1.374473 -6.81485,1.374473 h -3.32115 c -2.74895,0 -5.38286,-0.515428 -7.27276,-2.291034 -1.71809,-1.60306 -3.03505,-4.29449 -3.03505,-11.854092 0,-7.44457 1.26018,-10.078485 2.86324,-11.624767 1.83238,-1.8899 4.58133,-2.462843 7.44457,-2.462843 h 2.86324 c 3.32115,0 5.6697,0.744752 7.21524,2.119225 1.77487,1.488767 2.69143,3.779801 2.69143,7.100952 v 1.947416 c 7.4e-4,3.093301 -0.74327,4.925686 -5.09602,4.925686 z m 0.22933,-5.26783 v -1.718091 c 0,-1.60306 -0.2861,-2.977533 -1.25944,-3.893357 -0.91656,-0.916561 -2.29104,-1.260179 -4.12342,-1.260179 h -2.176 c -1.83239,0 -3.03505,0.458649 -3.83658,1.317695 -1.37448,1.316957 -1.6038,3.7798 -1.66058,7.158467 h 11.51047 c 1.08764,-0.0015 1.54555,-0.516902 1.54555,-1.604535 z M 529.91415,46.694585 504.48788,2.655407 C 503.92526,1.680593 502.74619,1 501.62095,1 h -50.85181 c -1.12524,0 -2.3043,0.680593 -2.86766,1.655407 l -25.42627,44.039178 c -0.56262,0.974814 -0.56262,2.336014 0,3.310828 l 25.42553,44.039173 C 448.46336,95.0194 449.64243,95.7 450.76841,95.7 h 50.85181 c 1.12523,0 2.3043,-0.6806 2.86692,-1.655414 l 25.4248,-44.037699 c 0.56557,-0.975551 0.56557,-2.338226 0.002,-3.312302 z M 452.10453,90.075279 V 50.408758 h 22.9015 l 11.45074,19.833261 z m 36.411,-16.267299 10.26209,17.7745 h -41.04837 z m -36.411,-67.183259 34.35224,19.833257 -11.45074,19.833261 h -22.9015 z m 5.62472,-1.507201 h 41.04837 l -10.26209,17.774498 z m 20.84274,43.232479 11.45074,-19.833261 34.35224,19.833261 -34.35224,19.83326 z m 44.29504,-5.624721 -30.78554,-17.774501 10.26209,-17.7745 z m -74.88002,-31.98304 v 35.549001 h -20.52418 z m -20.52418,39.66652 h 20.52418 V 85.95776 Z m 74.88075,39.114962 -10.26209,-17.7745 30.78628,-17.774501 z"
   id="path953"
   style="fill:#ffffff;stroke-width:1" /></svg>
