<?xml version="1.0" encoding="iso-8859-1"?>
<!-- Uploaded to: SVG Repo, www.svgrepo.com, Generator: SVG Repo Mixer Tools -->
<svg fill="#000000" height="800px" width="800px" version="1.1" id="Layer_1" xmlns="http://www.w3.org/2000/svg" xmlns:xlink="http://www.w3.org/1999/xlink" 
	 viewBox="0 0 508.1 508.1" xml:space="preserve">
<g>
	<g>
		<path d="M440.85,55.3h-168.3v-0.7c0-30.1-24.5-54.6-54.6-54.6c-30.1,0-54.6,24.5-54.6,54.6c0,0.2,0.1,0.5,0.1,0.7h-31.7
			c-7.8,0-14.1,6.3-14.1,14.1v43.4h-50.4c-7.8,0-14.1,6.3-14.1,14.1v262.4c0,3.7,1.5,7.3,4.1,10L161.85,504c2.6,2.6,6.2,4.1,10,4.1
			h204.5c7.8,0,14.1-6.3,14.1-14.1v-37.5h50.4c7.8,0,14.1-6.3,14.1-14.1v-373C454.95,61.6,448.65,55.3,440.85,55.3z M191.55,54.6
			c0-14.5,11.8-26.4,26.4-26.4c14.6,0,26.4,11.8,26.4,26.4v0.7h-52.8C191.55,55.1,191.55,54.8,191.55,54.6z M145.85,83.5h98.5v29.3
			h-98.5V83.5z M244.35,141v31c0,14.5-11.8,26.4-26.4,26.4s-26.4-11.8-26.4-26.4v-31H244.35z M157.75,459.8l-56.5-56.5h56.5V459.8z
			 M362.25,479.8h-176.2v-90.5c0-7.8-6.3-14.1-14.1-14.1h-90.6V141h82v31c0,30.1,24.5,54.6,54.6,54.6c30.1,0,54.6-24.5,54.6-54.6
			v-31h89.7V479.8z M426.75,428.1h-36.3V126.9c0-7.8-6.3-14.1-14.1-14.1h-103.8V83.5h154.2V428.1z"/>
	</g>
</g>
</svg>